<svg width="320" height="100" viewBox="0 0 320 100" xmlns="http://www.w3.org/2000/svg">
  <defs>
    <linearGradient id="shield1" x1="0%" y1="0%" x2="0%" y2="100%">
      <stop offset="0%" style="stop-color:#a855f7"/>
      <stop offset="100%" style="stop-color:#7c3aed"/>
    </linearGradient>
  </defs>
  
  <g transform="translate(20, 15)">
    <!-- Shield shape -->
    <path d="M 35 5 L 5 18 L 5 40 Q 5 60 35 70 Q 65 60 65 40 L 65 18 Z" 
          fill="url(#shield1)">
      <animate attributeName="d" 
               values="M 35 5 L 5 18 L 5 40 Q 5 60 35 70 Q 65 60 65 40 L 65 18 Z;
                       M 35 5 L 5 18 L 5 40 Q 5 62 35 72 Q 65 62 65 40 L 65 18 Z;
                       M 35 5 L 5 18 L 5 40 Q 5 60 35 70 Q 65 60 65 40 L 65 18 Z" 
               dur="4s" repeatCount="indefinite"/>
    </path>
    
    <!-- E in shield -->
    <path d="M 20 25 L 50 25 M 20 25 L 20 50 M 20 37 L 48 37 M 20 50 L 50 50" 
          stroke="white" stroke-width="4" stroke-linecap="round" fill="none"/>
    
    <!-- Shield border -->
    <path d="M 35 5 L 5 18 L 5 40 Q 5 60 35 70 Q 65 60 65 40 L 65 18 Z" 
          fill="none" stroke="white" stroke-width="1" opacity="0.3"/>
  </g>
  
  <text x="95" y="50" font-family="Arial" font-size="38" font-weight="700" fill="#1a1a1a">Eva</text>
  <text x="95" y="72" font-family="Arial" font-size="18" font-weight="600" fill="url(#shield1)" letter-spacing="4">ERP</text>
</svg>